<?xml version="1.0" encoding="utf-8"?>
<svg version="1.1" xmlns:xlink="http://www.w3.org/1999/xlink" width="41px" height="31px" xmlns="http://www.w3.org/2000/svg">
  <g transform="matrix(1 0 0 1 -412 -373 )">
    <path d="M 12.4708333333333 6.296875  C 13.2680555555555 7.0503472222222  13.6666666666667 7.9652777777778  13.6666666666667 9.04166666666667  C 13.6666666666667 10.1180555555555  13.2680555555555 11.0329861111111  12.4708333333333 11.7864583333333  C 11.6736111111111 12.5399305555555  10.7055555555555 12.9166666666667  9.56666666666668 12.9166666666667  C 8.42777777777778 12.9166666666667  7.45972222222223 12.5399305555555  6.66250000000001 11.7864583333333  C 5.86527777777778 11.0329861111111  5.46666666666667 10.1180555555555  5.46666666666667 9.04166666666667  C 5.46666666666667 7.9652777777778  5.86527777777778 7.0503472222222  6.66250000000001 6.296875  C 7.45972222222223 5.5434027777778  8.42777777777778 5.16666666666667  9.56666666666668 5.16666666666667  C 10.7055555555555 5.16666666666667  11.6736111111111 5.5434027777778  12.4708333333333 6.296875  Z M 26.65 8.39583333333333  L 35.5333333333333 16.7916666666667  L 35.5333333333333 25.8333333333333  L 5.46666666666667 25.8333333333333  L 5.46666666666667 21.9583333333333  L 12.3 15.5  L 15.7166666666667 18.7291666666667  L 26.65 8.39583333333333  Z M 38.0638020833333 2.77506510416667  C 37.9285590277778 2.64724392361113  37.7684027777778 2.58333333333333  37.5833333333333 3  L 3.41666666666666 3  C 3.23159722222223 2.58333333333333  3.07144097222223 2.64724392361113  2.93619791666666 2.77506510416667  C 2.80095486111111 2.9028862847222  2.73333333333334 3.0542534722222  3 3.22916666666667  L 3 27.7708333333333  C 2.73333333333334 27.9457465277777  2.80095486111111 28.0971137152777  2.93619791666666 28.2249348958333  C 3.07144097222223 28.3527560763889  3.23159722222223 28.4166666666667  3.41666666666666 28  L 37.5833333333333 28  C 37.7684027777778 28.4166666666667  37.9285590277778 28.3527560763889  38.0638020833333 28.2249348958333  C 38.1990451388889 28.0971137152777  38.2666666666667 27.9457465277777  38 27.7708333333333  L 38 3.22916666666667  C 38.2666666666667 3.0542534722222  38.1990451388889 2.9028862847222  38.0638020833333 2.77506510416667  Z M 39.9963541666666 0.948567708333333  C 40.6654513888889 1.58094618055554  41 2.34114583333333  41 3.22916666666667  L 41 27.7708333333333  C 41 28.6588541666667  40.6654513888889 29.4190538194444  39.9963541666666 30.0514322916667  C 39.3272569444445 30.6838107638889  38.5229166666667 31  37.5833333333333 31  L 3.41666666666666 31  C 2.47708333333333 31  1.67274305555555 30.6838107638889  1.00364583333332 30.0514322916667  C 0.334548611111116 29.4190538194444  0 28.6588541666667  0 27.7708333333333  L 0 3.22916666666667  C 0 2.34114583333333  0.334548611111116 1.58094618055554  1.00364583333332 0.948567708333333  C 1.67274305555555 0.316189236111129  2.47708333333333 0  3.41666666666666 0  L 37.5833333333333 0  C 38.5229166666667 0  39.3272569444445 0.316189236111129  39.9963541666666 0.948567708333333  Z " fill-rule="nonzero" fill="#098ae8" stroke="none" transform="matrix(1 0 0 1 412 373 )" />
  </g>
</svg>