<?xml version="1.0" encoding="utf-8"?>
<svg version="1.1" xmlns:xlink="http://www.w3.org/1999/xlink" width="64px" height="48px" xmlns="http://www.w3.org/2000/svg">
  <g transform="matrix(1 0 0 1 -592 -546 )">
    <path d="M 19.4666666666667 9.75  C 20.7111111111111 10.9166666666666  21.3333333333333 12.3333333333334  21.3333333333333 14  C 21.3333333333333 15.6666666666666  20.7111111111111 17.0833333333334  19.4666666666667 18.25  C 18.2222222222222 19.4166666666666  16.7111111111111 20  14.9333333333334 20  C 13.1555555555556 20  11.6444444444445 19.4166666666666  10.4 18.25  C 9.15555555555557 17.0833333333334  8.53333333333334 15.6666666666666  8.53333333333334 14  C 8.53333333333334 12.3333333333334  9.15555555555557 10.9166666666666  10.4 9.75  C 11.6444444444445 8.58333333333336  13.1555555555556 8  14.9333333333334 8  C 16.7111111111111 8  18.2222222222222 8.58333333333336  19.4666666666667 9.75  Z M 41.6 13  L 55 26  L 55 40  L 8.53333333333334 40  L 8.53333333333334 34  L 19.2 24  L 24.5333333333333 29  L 41.6 13  Z M 59.4166666666666 4.296875  C 59.2055555555555 4.09895833333336  58.9555555555555 4  58.6666666666666 4  L 5.33333333333332 4  C 5.04444444444446 4  4.79444444444446 4.09895833333336  4.58333333333332 4.296875  C 4.37222222222222 4.49479166666664  4.26666666666667 4.72916666666664  5 5  L 5 43  C 4.26666666666667 43.2708333333333  4.37222222222222 43.5052083333333  4.58333333333332 43.703125  C 4.79444444444446 43.9010416666667  5.04444444444446 44  5.33333333333332 44  L 58.6666666666666 44  C 58.9555555555555 44  59.2055555555555 43.9010416666667  59.4166666666666 43.703125  C 59.6277777777778 43.5052083333333  59.7333333333333 43.2708333333333  59 43  L 59 5  C 59.7333333333333 4.72916666666664  59.6277777777778 4.49479166666664  59.4166666666666 4.296875  Z M 62.4333333333333 1.46875  C 63.4777777777778 2.44791666666664  64 3.625  64 5  L 64 43  C 64 44.375  63.4777777777778 45.5520833333333  62.4333333333333 46.53125  C 61.3888888888889 47.5104166666667  60.1333333333333 48  58.6666666666666 48  L 5.33333333333332 48  C 3.86666666666666 48  2.61111111111111 47.5104166666667  1.56666666666665 46.53125  C 0.52222222222223 45.5520833333333  0 44.375  0 43  L 0 5  C 0 3.625  0.52222222222223 2.44791666666664  1.56666666666665 1.46875  C 2.61111111111111 0.489583333333361  3.86666666666666 0  5.33333333333332 0  L 58.6666666666666 0  C 60.1333333333333 0  61.3888888888889 0.489583333333361  62.4333333333333 1.46875  Z " fill-rule="nonzero" fill="#098ae8" stroke="none" transform="matrix(1 0 0 1 592 546 )" />
  </g>
</svg>