<?xml version="1.0" encoding="utf-8"?>
<svg version="1.1" xmlns:xlink="http://www.w3.org/1999/xlink" width="104px" height="22px" xmlns="http://www.w3.org/2000/svg">
  <g transform="matrix(1 0 0 1 -761 -237 )">
    <path d="M 774.5 244.5  A 3.5 3.5 0 0 0 771 248 A 3.5 3.5 0 0 0 774.5 251.5 A 3.5 3.5 0 0 0 778 248 A 3.5 3.5 0 0 0 774.5 244.5 Z M 847.892893218813 243.707106781187  L 852.185786437627 248  L 847.892893218813 252.292893218813  L 849.307106781187 253.707106781187  L 854.307106781187 248.707106781187  L 855.014213562373 248  L 854.307106781187 247.292893218813  L 849.307106781187 242.292893218813  L 847.892893218813 243.707106781187  Z " fill-rule="nonzero" fill="#ff0000" stroke="none" />
    <path d="M 773 248  L 853 248  " stroke-width="2" stroke="#ff0000" fill="none" />
  </g>
</svg>