<?xml version="1.0" encoding="utf-8"?>
<svg version="1.1" xmlns:xlink="http://www.w3.org/1999/xlink" width="190px" height="22px" xmlns="http://www.w3.org/2000/svg">
  <g transform="matrix(1 0 0 1 -1568 -363 )">
    <path d="M 1581.5 370.5  A 3.5 3.5 0 0 0 1578 374 A 3.5 3.5 0 0 0 1581.5 377.5 A 3.5 3.5 0 0 0 1585 374 A 3.5 3.5 0 0 0 1581.5 370.5 Z M 1744.5 370.5  A 3.5 3.5 0 0 0 1741 374 A 3.5 3.5 0 0 0 1744.5 377.5 A 3.5 3.5 0 0 0 1748 374 A 3.5 3.5 0 0 0 1744.5 370.5 Z " fill-rule="nonzero" fill="#ff0000" stroke="none" />
    <path d="M 1580 374  L 1746 374  " stroke-width="2" stroke="#ff0000" fill="none" />
  </g>
</svg>