<?xml version="1.0" encoding="utf-8"?>
<svg version="1.1" xmlns:xlink="http://www.w3.org/1999/xlink" width="190px" height="22px" xmlns="http://www.w3.org/2000/svg">
  <g transform="matrix(1 0 0 1 -1578 -373 )">
    <path d="M 1591.5 380.5  A 3.5 3.5 0 0 0 1588 384 A 3.5 3.5 0 0 0 1591.5 387.5 A 3.5 3.5 0 0 0 1595 384 A 3.5 3.5 0 0 0 1591.5 380.5 Z M 1754.5 380.5  A 3.5 3.5 0 0 0 1751 384 A 3.5 3.5 0 0 0 1754.5 387.5 A 3.5 3.5 0 0 0 1758 384 A 3.5 3.5 0 0 0 1754.5 380.5 Z " fill-rule="nonzero" fill="#ff0000" stroke="none" />
    <path d="M 1590 384  L 1756 384  " stroke-width="2" stroke="#ff0000" fill="none" />
  </g>
</svg>