<?xml version="1.0" encoding="utf-8"?>
<svg version="1.1" xmlns:xlink="http://www.w3.org/1999/xlink" width="170px" height="106px" xmlns="http://www.w3.org/2000/svg">
  <g transform="matrix(1 0 0 1 -497 -333 )">
    <path d="M 497 333  L 667 333  L 667 439  L 497 439  L 497 333  " fill-rule="nonzero" fill="#cccccc" stroke="none" />
    <path d="M 504 340  L 660 340  L 660 432  L 504 432  L 504 340  " fill-rule="nonzero" fill="#ffffff" stroke="none" />
    <path d="M 593.35 364.8  C 588.898 364.8  585.4 361.302  585.4 356.85  C 585.4 352.398  588.898 348.9  593.35 348.9  C 597.802 348.9  601.3 352.398  601.3 356.85  C 601.3 361.302  597.802 364.8  593.35 364.8  " fill-rule="nonzero" fill="#cccccc" stroke="none" />
    <path d="M 507 430  L 507 382.15  L 544.75 360.4  L 597.6 397.451764705882  L 627.8 373.45  L 658 397.451764705882  L 658 430  L 507 430  " fill-rule="nonzero" fill="#169bd5" stroke="none" />
  </g>
</svg>