<?xml version="1.0" encoding="utf-8"?>
<svg version="1.1" xmlns:xlink="http://www.w3.org/1999/xlink" width="104px" height="104px" xmlns="http://www.w3.org/2000/svg">
  <g transform="matrix(1 0 0 1 -786 -345 )">
    <path d="M 787 349  A 3 3 0 0 1 790 346 L 886 346  A 3 3 0 0 1 889 349 L 889 445  A 3 3 0 0 1 886 448 L 790 448  A 3 3 0 0 1 787 445 L 787 349  Z " fill-rule="nonzero" fill="#000000" stroke="none" fill-opacity="0.0196078431372549" />
    <path d="M 786.5 349  A 3.5 3.5 0 0 1 790 345.5 L 886 345.5  A 3.5 3.5 0 0 1 889.5 349 L 889.5 445  A 3.5 3.5 0 0 1 886 448.5 L 790 448.5  A 3.5 3.5 0 0 1 786.5 445 L 786.5 349  Z " stroke-width="1" stroke-dasharray="9,4" stroke="#000000" fill="none" stroke-opacity="0.149019607843137" stroke-dashoffset="0.5" />
  </g>
</svg>