<?xml version="1.0" encoding="utf-8"?>
<svg version="1.1" xmlns:xlink="http://www.w3.org/1999/xlink" width="104px" height="104px" xmlns="http://www.w3.org/2000/svg">
  <g transform="matrix(1 0 0 1 -906 -488 )">
    <path d="M 907 492  A 3 3 0 0 1 910 489 L 1006 489  A 3 3 0 0 1 1009 492 L 1009 588  A 3 3 0 0 1 1006 591 L 910 591  A 3 3 0 0 1 907 588 L 907 492  Z " fill-rule="nonzero" fill="#ffffff" stroke="none" />
    <path d="M 906.5 492  A 3.5 3.5 0 0 1 910 488.5 L 1006 488.5  A 3.5 3.5 0 0 1 1009.5 492 L 1009.5 588  A 3.5 3.5 0 0 1 1006 591.5 L 910 591.5  A 3.5 3.5 0 0 1 906.5 588 L 906.5 492  Z " stroke-width="1" stroke-dasharray="9,4" stroke="#d9d9d9" fill="none" stroke-dashoffset="0.5" />
  </g>
</svg>