<?xml version="1.0" encoding="utf-8"?>
<svg version="1.1" xmlns:xlink="http://www.w3.org/1999/xlink" width="40px" height="40px" xmlns="http://www.w3.org/2000/svg">
  <g transform="matrix(1 0 0 1 -892 -1007 )">
    <path d="M 912 1007  C 923.2 1007  932 1015.8  932 1027  C 932 1038.2  923.2 1047  912 1047  C 900.8 1047  892 1038.2  892 1027  C 892 1015.8  900.8 1007  912 1007  Z " fill-rule="nonzero" fill="#ffffff" stroke="none" />
    <path d="M 912 1007.5  C 922.92 1007.5  931.5 1016.08  931.5 1027  C 931.5 1037.92  922.92 1046.5  912 1046.5  C 901.08 1046.5  892.5 1037.92  892.5 1027  C 892.5 1016.08  901.08 1007.5  912 1007.5  Z " stroke-width="1" stroke="#797979" fill="none" />
  </g>
</svg>