<?xml version="1.0" encoding="utf-8"?>
<svg version="1.1" xmlns:xlink="http://www.w3.org/1999/xlink" width="450px" height="267px" xmlns="http://www.w3.org/2000/svg">
  <g transform="matrix(1 0 0 1 -810 -209 )">
    <path d="M 810 209  L 1260 209  L 1260 476  L 810 476  L 810 209  " fill-rule="nonzero" fill="#cccccc" stroke="none" />
    <path d="M 829 228  L 1241 228  L 1241 457  L 829 457  L 829 228  " fill-rule="nonzero" fill="#ffffff" stroke="none" />
    <path d="M 1064.025 289.1  C 1052.811 289.1  1044 280.289  1044 269.075  C 1044 257.861  1052.811 249.05  1064.025 249.05  C 1075.239 249.05  1084.05 257.861  1084.05 269.075  C 1084.05 280.289  1075.239 289.1  1064.025 289.1  " fill-rule="nonzero" fill="#cccccc" stroke="none" />
    <path d="M 836 451  L 836 332.2  L 935.75 278.2  L 1075.4 374.104  L 1155.2 310.6  L 1235 374.104  L 1235 451  L 836 451  " fill-rule="nonzero" fill="#169bd5" stroke="none" />
  </g>
</svg>