<?xml version="1.0" encoding="utf-8"?>
<svg version="1.1" xmlns:xlink="http://www.w3.org/1999/xlink" width="30px" height="30px" xmlns="http://www.w3.org/2000/svg">
  <defs>
    <filter x="1369px" y="293px" width="30px" height="30px" filterUnits="userSpaceOnUse" id="filter11">
      <feOffset dx="1" dy="1" in="SourceAlpha" result="shadowOffsetInner" />
      <feGaussianBlur stdDeviation="2.5" in="shadowOffsetInner" result="shadowGaussian" />
      <feComposite in2="shadowGaussian" operator="atop" in="SourceAlpha" result="shadowComposite" />
      <feColorMatrix type="matrix" values="0 0 0 0 0  0 0 0 0 0  0 0 0 0 0  0 0 0 0.698039215686274 0  " in="shadowComposite" />
    </filter>
    <g id="widget12">
      <path d="M 1383 297  C 1388.6 297  1393 301.4  1393 307  C 1393 312.6  1388.6 317  1383 317  C 1377.4 317  1373 312.6  1373 307  C 1373 301.4  1377.4 297  1383 297  Z " fill-rule="nonzero" fill="#ff0000" stroke="none" />
      <path d="M 1383 297.5  C 1388.32 297.5  1392.5 301.68  1392.5 307  C 1392.5 312.32  1388.32 316.5  1383 316.5  C 1377.68 316.5  1373.5 312.32  1373.5 307  C 1373.5 301.68  1377.68 297.5  1383 297.5  Z " stroke-width="1" stroke="#ffffff" fill="none" />
    </g>
  </defs>
  <g transform="matrix(1 0 0 1 -1369 -293 )">
    <use xlink:href="#widget12" filter="url(#filter11)" />
    <use xlink:href="#widget12" />
  </g>
</svg>