<?xml version="1.0" encoding="utf-8"?>
<svg version="1.1" xmlns:xlink="http://www.w3.org/1999/xlink" width="30px" height="30px" xmlns="http://www.w3.org/2000/svg">
  <defs>
    <filter x="1369px" y="247px" width="30px" height="30px" filterUnits="userSpaceOnUse" id="filter9">
      <feOffset dx="1" dy="1" in="SourceAlpha" result="shadowOffsetInner" />
      <feGaussianBlur stdDeviation="2.5" in="shadowOffsetInner" result="shadowGaussian" />
      <feComposite in2="shadowGaussian" operator="atop" in="SourceAlpha" result="shadowComposite" />
      <feColorMatrix type="matrix" values="0 0 0 0 0  0 0 0 0 0  0 0 0 0 0  0 0 0 0.698039215686274 0  " in="shadowComposite" />
    </filter>
    <g id="widget10">
      <path d="M 1383 251  C 1388.6 251  1393 255.4  1393 261  C 1393 266.6  1388.6 271  1383 271  C 1377.4 271  1373 266.6  1373 261  C 1373 255.4  1377.4 251  1383 251  Z " fill-rule="nonzero" fill="#ff0000" stroke="none" />
      <path d="M 1383 251.5  C 1388.32 251.5  1392.5 255.68  1392.5 261  C 1392.5 266.32  1388.32 270.5  1383 270.5  C 1377.68 270.5  1373.5 266.32  1373.5 261  C 1373.5 255.68  1377.68 251.5  1383 251.5  Z " stroke-width="1" stroke="#ffffff" fill="none" />
    </g>
  </defs>
  <g transform="matrix(1 0 0 1 -1369 -247 )">
    <use xlink:href="#widget10" filter="url(#filter9)" />
    <use xlink:href="#widget10" />
  </g>
</svg>