<?xml version="1.0" encoding="utf-8"?>
<svg version="1.1" xmlns:xlink="http://www.w3.org/1999/xlink" width="218px" height="22px" xmlns="http://www.w3.org/2000/svg">
  <g transform="matrix(1 0 0 1 -1126 -576 )">
    <path d="M 1139.5 583.5  A 3.5 3.5 0 0 0 1136 587 A 3.5 3.5 0 0 0 1139.5 590.5 A 3.5 3.5 0 0 0 1143 587 A 3.5 3.5 0 0 0 1139.5 583.5 Z M 1326.89289321881 582.707106781187  L 1331.18578643763 587  L 1326.89289321881 591.292893218813  L 1328.30710678119 592.707106781187  L 1333.30710678119 587.707106781187  L 1334.01421356237 587  L 1333.30710678119 586.292893218813  L 1328.30710678119 581.292893218813  L 1326.89289321881 582.707106781187  Z " fill-rule="nonzero" fill="#ff0000" stroke="none" />
    <path d="M 1138 587  L 1332 587  " stroke-width="2" stroke="#ff0000" fill="none" />
  </g>
</svg>