<?xml version="1.0" encoding="utf-8"?>
<svg version="1.1" xmlns:xlink="http://www.w3.org/1999/xlink" width="166px" height="22px" xmlns="http://www.w3.org/2000/svg">
  <g transform="matrix(1 0 0 1 -1700 -557 )">
    <path d="M 1713.5 564.5  A 3.5 3.5 0 0 0 1710 568 A 3.5 3.5 0 0 0 1713.5 571.5 A 3.5 3.5 0 0 0 1717 568 A 3.5 3.5 0 0 0 1713.5 564.5 Z M 1848.89289321881 563.707106781187  L 1853.18578643763 568  L 1848.89289321881 572.292893218813  L 1850.30710678119 573.707106781187  L 1855.30710678119 568.707106781187  L 1856.01421356237 568  L 1855.30710678119 567.292893218813  L 1850.30710678119 562.292893218813  L 1848.89289321881 563.707106781187  Z " fill-rule="nonzero" fill="#ff0000" stroke="none" />
    <path d="M 1712 568  L 1854 568  " stroke-width="2" stroke="#ff0000" fill="none" />
  </g>
</svg>