<?xml version="1.0" encoding="utf-8"?>
<svg version="1.1" xmlns:xlink="http://www.w3.org/1999/xlink" width="183px" height="22px" xmlns="http://www.w3.org/2000/svg">
  <g transform="matrix(1 0 0 1 -1683 -369 )">
    <path d="M 1696.5 376.5  A 3.5 3.5 0 0 0 1693 380 A 3.5 3.5 0 0 0 1696.5 383.5 A 3.5 3.5 0 0 0 1700 380 A 3.5 3.5 0 0 0 1696.5 376.5 Z M 1848.89289321881 375.707106781187  L 1853.18578643763 380  L 1848.89289321881 384.292893218813  L 1850.30710678119 385.707106781187  L 1855.30710678119 380.707106781187  L 1856.01421356237 380  L 1855.30710678119 379.292893218813  L 1850.30710678119 374.292893218813  L 1848.89289321881 375.707106781187  Z " fill-rule="nonzero" fill="#ff0000" stroke="none" />
    <path d="M 1695 380  L 1854 380  " stroke-width="2" stroke="#ff0000" fill="none" />
  </g>
</svg>