<?xml version="1.0" encoding="utf-8"?>
<svg version="1.1" xmlns:xlink="http://www.w3.org/1999/xlink" width="34px" height="26px" xmlns="http://www.w3.org/2000/svg">
  <g transform="matrix(1 0 0 1 -1282 -353 )">
    <path d="M 10.3416666666667 5.28125  C 11.0027777777778 5.91319444444443  11.3333333333333 6.68055555555557  11.3333333333333 7.58333333333333  C 11.3333333333333 8.4861111111111  11.0027777777778 9.25347222222224  10.3416666666667 9.88541666666667  C 9.68055555555555 10.5173611111111  8.87777777777777 10.8333333333333  7.93333333333334 10.8333333333333  C 6.98888888888889 10.8333333333333  6.18611111111111 10.5173611111111  5.525 9.88541666666667  C 4.86388888888889 9.25347222222224  4.53333333333334 8.4861111111111  4.53333333333334 7.58333333333333  C 4.53333333333334 6.68055555555557  4.86388888888889 5.91319444444443  5.525 5.28125  C 6.18611111111111 4.64930555555557  6.98888888888889 4.33333333333333  7.93333333333334 4.33333333333333  C 8.87777777777777 4.33333333333333  9.68055555555555 4.64930555555557  10.3416666666667 5.28125  Z M 22.1 7.04166666666667  L 29.4666666666667 14.0833333333333  L 29.4666666666667 21.6666666666667  L 4.53333333333334 21.6666666666667  L 4.53333333333334 18.4166666666667  L 10.2 13  L 13.0333333333333 15.7083333333333  L 22.1 7.04166666666667  Z M 31.5651041666667 2.32747395833333  C 31.4529513888889 2.22026909722224  31.3201388888889 2.16666666666667  31.1666666666667 2.16666666666667  L 2.83333333333333 2.16666666666667  C 2.67986111111112 2.16666666666667  2.54704861111112 2.22026909722224  2.43489583333333 2.32747395833333  C 2.32274305555555 2.43467881944443  2.26666666666667 2.56163194444443  2.26666666666667 2.70833333333333  L 2.26666666666667 23.2916666666667  C 2.26666666666667 23.4383680555555  2.32274305555555 23.5653211805555  2.43489583333333 23.6725260416667  C 2.54704861111112 23.7797309027778  2.67986111111112 23.8333333333333  2.83333333333333 23.8333333333333  L 31.1666666666667 23.8333333333333  C 31.3201388888889 23.8333333333333  31.4529513888889 23.7797309027778  31.5651041666667 23.6725260416667  C 31.6772569444444 23.5653211805555  31.7333333333333 23.4383680555555  31.7333333333333 23.2916666666667  L 31.7333333333333 2.70833333333333  C 31.7333333333333 2.56163194444443  31.6772569444444 2.43467881944443  31.5651041666667 2.32747395833333  Z M 33.1677083333333 0.795572916666667  C 33.7225694444444 1.3259548611111  34 1.96354166666667  34 2.70833333333333  L 34 23.2916666666667  C 34 24.0364583333333  33.7225694444444 24.6740451388889  33.1677083333333 25.2044270833333  C 32.6128472222222 25.7348090277778  31.9458333333333 26  31.1666666666667 26  L 2.83333333333333 26  C 2.05416666666667 26  1.38715277777778 25.7348090277778  0.832291666666656 25.2044270833333  C 0.277430555555559 24.6740451388889  0 24.0364583333333  0 23.2916666666667  L 0 2.70833333333333  C 0 1.96354166666667  0.277430555555559 1.3259548611111  0.832291666666656 0.795572916666667  C 1.38715277777778 0.265190972222237  2.05416666666667 0  2.83333333333333 0  L 31.1666666666667 0  C 31.9458333333333 0  32.6128472222222 0.265190972222237  33.1677083333333 0.795572916666667  Z " fill-rule="nonzero" fill="#098ae8" stroke="none" transform="matrix(1 0 0 1 1282 353 )" />
  </g>
</svg>